<?xml version="1.0" encoding="utf-8"?>
<!-- Generator: Adobe Illustrator 25.0.0, SVG Export Plug-In . SVG Version: 6.00 Build 0)  -->
<svg version="1.1" id="Layer_1" xmlns="http://www.w3.org/2000/svg" xmlns:xlink="http://www.w3.org/1999/xlink" x="0px" y="0px"
	 viewBox="0 0 300 300" style="enable-background:new 0 0 300 300;" xml:space="preserve">
<style type="text/css">
	.st0{fill-rule:evenodd;clip-rule:evenodd;fill:#F5F6F6;}
	.st1{fill-rule:evenodd;clip-rule:evenodd;fill:#FFFFFF;}
	.st2{fill-rule:evenodd;clip-rule:evenodd;fill:#60639F;}
</style>
<g>
	<path class="st0" d="M72.91,196.8l66.61,38.46c46.6-5.1,101.06-45.77,140.24-90.51l-60.24-32.6L72.91,196.8z"/>
	<path class="st1" d="M15.74,151.67c39.32,22.7,78.64,45.41,117.97,68.11c48.23,0.32,107.87-40.8,150.55-86.93
		c-39.33-22.7-78.65-45.4-117.98-68.11C122.62,108.4,83.12,148.55,15.74,151.67z"/>
	<path class="st2" d="M171.54,76.6l15.19,8.77l-0.6,1.05l-15.19-8.77L171.54,76.6L171.54,76.6z M168.37,80.54l-0.6,1.05l9.54,5.51
		l0.6-1.05L168.37,80.54z"/>
</g>
</svg>
