<?xml version="1.0" encoding="utf-8"?>
<!-- Generator: Adobe Illustrator 25.0.0, SVG Export Plug-In . SVG Version: 6.00 Build 0)  -->
<svg version="1.1" id="Layer_1" xmlns="http://www.w3.org/2000/svg" xmlns:xlink="http://www.w3.org/1999/xlink" x="0px" y="0px"
	 viewBox="0 0 300 300" style="enable-background:new 0 0 300 300;" xml:space="preserve">
<style type="text/css">
	.st0{fill:#CFD8D8;}
	.st1{fill:#E2E7E7;}
	.st2{fill:#72CBCE;}
	.st3{fill:#95A4A5;}
	.st4{fill:#36A3B3;}
	.st5{fill:#1C5D83;}
	.st6{fill:#2D3935;}
</style>
<g>
	<g>
		<path class="st0" d="M117.32,19.24c0,0,0.06,0.11,0.18,0.32c1,1.69,5.95,10.1,12.2,21.67c14.74,27.26,36.81,72.1,32.04,88.26
			c-6.48,21.93-14.15,23.33-14.15,23.33l6.18,24.26c0,0-3.38,9.99-9.75,2.31l-4.96-29.7L117.32,19.31L117.32,19.24z"/>
	</g>
	<g>
		<path class="st1" d="M117.29,19.26c0,0,0.01,0.02,0.03,0.05c0.04,0.05,0.1,0.12,0.18,0.25c1,1.69,5.95,10.1,12.2,21.67
			c-0.26,0.3-0.57,0.59-0.91,0.87c-7.02,5.75,11.61,12.97,4.12,28.88c-7.49,15.92,14,15.9,8.37,29.31
			c-5.63,13.41,7.04,15.74,2.68,27.14c-4.35,11.38,10.62,10.49-3.76,26.37l-1.14-4.12l-0.08-0.3L117.29,19.26z"/>
	</g>
	<g>
		
			<rect x="139.34" y="169.12" transform="matrix(0.9714 -0.2374 0.2374 0.9714 -37.626 40.1164)" class="st2" width="16.87" height="14.37"/>
	</g>
	<g>
		<path class="st3" d="M141.8,166.05c0,0,6.09-2.36,6.78-9.33l-1-3.91l-7.71,1.26L141.8,166.05z"/>
	</g>
	<g>
		<path class="st0" d="M179.38,150.41c6.26,7.75-4.19,9.11-4.19,9.11l-22.57-10.84c0,0-2.88,7.25-25.65,9.29
			c-16.93,1.51-60.82-26.4-82.51-47.89c-10.07-9.97-16.86-17.33-16.86-17.33l123.32,46.85L179.38,150.41z"/>
	</g>
	<g>
		<path class="st4" d="M149.04,168.6c0,0,6.14,8.17-7.75,16.68l16.32-3.54l-3.36-14.84L149.04,168.6z"/>
	</g>
	<g>
		
			<rect x="167.19" y="146.3" transform="matrix(0.4237 -0.9058 0.9058 0.4237 -37.8051 247.5428)" class="st2" width="16.87" height="14.37"/>
	</g>
	<g>
		<path class="st4" d="M167.82,153.2c0,0,6.42,7.09,17.75-4.15l-6.91,15.43l-13.31-6.69L167.82,153.2z"/>
	</g>
	<g>
		<g>
			<path class="st5" d="M182.74,275.16c0.71,2.93-1.59,5.72-4.6,5.6l0,0c-0.43-0.02-10.63-0.52-21.7-7.07
				c-10.16-6.02-23.07-18.48-26.85-43.63c-2.76-18.43-0.36-32.62,7.14-42.18c7.68-9.78,17.91-10.82,18.34-10.86l3.9-0.36
				L182.74,275.16z M147.13,190.15c-1.15,0.94-2.3,2.09-3.39,3.51c-5.71,7.42-7.5,19.55-5.17,35.06
				c2.6,17.36,10.17,29.87,22.5,37.17c4.16,2.46,8.13,3.89,11.24,4.71l-20.14-83.47C150.68,187.73,148.91,188.68,147.13,190.15z"/>
		</g>
	</g>
	<g>
		<g>
			<path class="st5" d="M265.68,207.19l-91.91-42.66l1.12-3.76c0.12-0.42,3.15-10.24,14.26-15.85c10.85-5.48,25.23-5.04,42.76,1.29
				c23.92,8.64,33.59,23.75,37.5,34.9c4.25,12.14,2.74,22.24,2.67,22.67l0,0C271.61,206.76,268.42,208.46,265.68,207.19z
				 M185.38,159.91l77.91,36.16c-0.58-10.38-5.58-30.89-34.47-41.32c-14.87-5.37-27.17-5.97-35.58-1.72
				C189.28,155.03,186.83,157.76,185.38,159.91z"/>
		</g>
	</g>
	<g>
		<path class="st1" d="M155.02,141.65c-18.4,10.99-14.58-3.52-26.6-1.49c-12.02,2.03-11.82-10.85-26.08-7.96
			c-14.26,2.88-10.02-18.19-27.09-13.97c-17.08,4.22-20.5-15.47-27.51-9.72c-1.08,0.88-2.18,1.37-3.27,1.57
			c-10.07-9.97-16.86-17.33-16.86-17.33l123.32,46.85L155.02,141.65z"/>
	</g>
	<g>
		<circle class="st3" cx="145.45" cy="147.23" r="3.4"/>
	</g>
	<g>
		
			<ellipse transform="matrix(0.4698 -0.8828 0.8828 0.4698 -50.8557 205.5269)" class="st6" cx="145.67" cy="145.1" rx="3.4" ry="3.4"/>
	</g>
</g>
</svg>
